<?xml version="1.0" encoding="UTF-8"?>
<svg id="Layer_1" data-name="Layer 1" xmlns="http://www.w3.org/2000/svg" viewBox="0 0 205.6 40.78">
  <defs>
    <style>
      .cls-1 {
        fill: #ff7000;
      }
    </style>
  </defs>
  <g>
    <path class="cls-1" d="M14.86,28.07c-1.01,0-2.22-.5-2.38-.58,0,.09,.04,.61-.05,.74-.24,.35-1.18,.45-1.74,.45-.43,0-1.18-.12-1.18-.69,0-.13,.13-1.41,.13-1.53-.48-.32-1.71-1.04-1.71-1.06,0-.15,.15-.23,.32-.23,.43,0,.95,.13,1.45,.21,.01-.14,.51-9.86,.55-10.45-.39,.28-2.07,2.98-2.31,3.57-.11,.28-.79-.28-.79-.75,0-1.1,2.83-5.83,7.14-5.83,10.15,0,11.46,16.14,.57,16.14Zm-.04-14.98c-1.54,0-2.52,.58-2.74,.76,0,1.19,.45,11.5,.46,12.23,8.08,1.79,7.78-12.99,2.28-12.99Z"/>
    <path class="cls-1" d="M31.39,22.71c-.51,.61-4.71,6.52-5.57,6.52-.07,0-1.55-.01-2.11-1.05-.07-.12-.33-.41-.33-.72s5.71-7.61,5.85-7.86c-.12-.23-4.59-5.44-4.59-6.13,0-.34,.72-.39,.78-.39,1.2,0,5.04,4.79,5.21,4.97,.13-.13,5.8-6.5,7.05-6.5,.22,0,.58,.27,.58,.54,0,1.03-2.85,4.89-3.77,6.32-.58,.9-1.63,2.33-1.76,2.54,.35,.42,5.62,6.24,5.62,6.45,0,.53-.74,1.16-1.3,1.16-.71,0-4.83-5.11-5.68-5.86Z"/>
  </g>
  <path class="cls-1" d="M24.99,2.54c9.84,0,17.85,8.01,17.85,17.85s-8.01,17.85-17.85,17.85h-4.45c-9.84,0-17.85-8.01-17.85-17.85S10.69,2.54,20.54,2.54h4.45m0-2h-4.45C9.57,.54,.68,9.43,.68,20.39s8.89,19.85,19.85,19.85h4.45c10.96,0,19.85-8.89,19.85-19.85S35.96,.54,24.99,.54h0Z"/>
  <g>
    <path d="M51.39,28.16v-2.98h2.92V9.38h-2.92v-2.99h8.71c2.9,0,5.12,.74,6.67,2.21s2.32,3.69,2.32,6.65v4.07c0,2.96-.77,5.18-2.32,6.64-1.54,1.46-3.77,2.19-6.67,2.19h-8.71Zm6.31-3.05h2.43c1.89,0,3.29-.48,4.2-1.43,.91-.95,1.37-2.37,1.37-4.26v-4.29c0-1.91-.46-3.33-1.37-4.26s-2.31-1.4-4.2-1.4h-2.43v15.64Z"/>
    <path d="M79.99,28.6c-1.55,0-2.91-.33-4.07-.98-1.16-.65-2.07-1.58-2.72-2.77-.65-1.19-.98-2.58-.98-4.15v-.37c0-1.6,.32-2.99,.96-4.18,.64-1.19,1.54-2.11,2.69-2.77,1.15-.65,2.48-.98,4-.98s2.76,.33,3.87,.98c1.11,.65,1.97,1.56,2.6,2.72s.93,2.52,.93,4.07v1.21h-11.78c.04,1.35,.49,2.42,1.35,3.22s1.93,1.2,3.22,1.2c1.2,0,2.11-.27,2.72-.81,.61-.54,1.08-1.16,1.41-1.87l2.64,1.37c-.29,.58-.71,1.19-1.26,1.83-.55,.64-1.27,1.18-2.16,1.62s-2.03,.65-3.42,.65Zm-4.48-9.67h8.49c-.08-1.16-.5-2.07-1.24-2.72-.75-.65-1.72-.98-2.92-.98s-2.18,.33-2.94,.98c-.76,.65-1.22,1.56-1.38,2.72Z"/>
    <path d="M94.67,28.16l-5.16-15.33h3.39l4.07,12.96h.5l4.07-12.96h3.39l-5.16,15.33h-5.1Z"/>
    <path d="M106.51,28.16l6.68-10.98-6.59-10.79h3.86l4.91,8.4h.5l4.94-8.4h3.86l-6.59,10.79,6.68,10.98h-3.89l-5.01-8.58h-.5l-5,8.58h-3.86Z"/>
    <path d="M127.97,34.38V12.84h3.14v2.21h.5c.39-.68,.99-1.29,1.79-1.83s1.94-.81,3.44-.81c1.29,0,2.46,.31,3.53,.93,1.07,.62,1.93,1.52,2.58,2.69,.65,1.17,.98,2.59,.98,4.24v.47c0,1.66-.32,3.07-.96,4.24-.64,1.17-1.5,2.07-2.58,2.69-1.08,.62-2.26,.93-3.54,.93-.99,0-1.83-.12-2.52-.37-.68-.25-1.23-.56-1.65-.95s-.75-.78-1-1.2h-.5v8.3h-3.2Zm7.93-8.58c1.41,0,2.56-.45,3.45-1.34,.89-.89,1.34-2.17,1.34-3.82v-.28c0-1.64-.45-2.9-1.35-3.79-.9-.89-2.05-1.34-3.44-1.34s-2.5,.45-3.4,1.34c-.9,.89-1.35,2.16-1.35,3.79v.28c0,1.66,.45,2.93,1.35,3.82,.9,.89,2.04,1.34,3.4,1.34Z"/>
    <path d="M154.92,28.6c-1.55,0-2.91-.33-4.07-.98-1.16-.65-2.07-1.58-2.72-2.77-.65-1.19-.98-2.58-.98-4.15v-.37c0-1.6,.32-2.99,.96-4.18,.64-1.19,1.54-2.11,2.69-2.77,1.15-.65,2.48-.98,4-.98s2.76,.33,3.87,.98c1.11,.65,1.97,1.56,2.6,2.72s.93,2.52,.93,4.07v1.21h-11.78c.04,1.35,.49,2.42,1.35,3.22s1.93,1.2,3.22,1.2c1.2,0,2.11-.27,2.72-.81,.61-.54,1.08-1.16,1.41-1.87l2.64,1.37c-.29,.58-.71,1.19-1.26,1.83-.55,.64-1.27,1.18-2.16,1.62s-2.03,.65-3.42,.65Zm-4.48-9.67h8.49c-.08-1.16-.5-2.07-1.24-2.72-.75-.65-1.72-.98-2.92-.98s-2.18,.33-2.94,.98c-.76,.65-1.22,1.56-1.38,2.72Z"/>
    <path d="M166.05,28.16V12.84h3.14v1.8h.5c.25-.64,.65-1.11,1.2-1.42,.55-.3,1.23-.45,2.04-.45h1.83v2.89h-1.96c-1.04,0-1.89,.29-2.55,.86-.66,.57-1,1.45-1,2.63v9.02h-3.2Z"/>
    <path d="M183.84,28.16c-.93,0-1.67-.28-2.22-.84s-.82-1.31-.82-2.24V15.54h-4.23v-2.71h4.23V7.77h3.2v5.07h4.57v2.71h-4.57v8.99c0,.62,.29,.93,.87,.93h3.2v2.71h-4.23Z"/>
    <path d="M198.61,28.6c-1.95,0-3.57-.44-4.85-1.31-1.29-.87-2.07-2.19-2.36-3.95l2.98-.71c.17,.85,.45,1.52,.84,2.02,.39,.5,.89,.85,1.48,1.06s1.23,.31,1.91,.31c1.02,0,1.8-.2,2.35-.59,.55-.39,.82-.9,.82-1.52s-.26-1.08-.78-1.37c-.52-.29-1.29-.53-2.3-.71l-1.06-.19c-1.04-.19-1.98-.46-2.83-.81-.85-.35-1.52-.84-2.02-1.46-.5-.62-.75-1.42-.75-2.39,0-1.45,.54-2.58,1.62-3.37,1.08-.8,2.51-1.2,4.29-1.2s3.13,.39,4.24,1.17c1.11,.78,1.83,1.83,2.16,3.16l-2.99,.84c-.19-.93-.58-1.59-1.18-1.97-.6-.38-1.35-.58-2.24-.58s-1.55,.16-2.05,.48-.75,.77-.75,1.35c0,.62,.24,1.08,.73,1.37s1.15,.51,1.97,.65l1.09,.19c1.1,.19,2.1,.45,3.02,.78,.91,.33,1.63,.81,2.16,1.43s.79,1.45,.79,2.49c0,1.53-.57,2.73-1.71,3.58-1.14,.85-2.67,1.28-4.6,1.28Z"/>
  </g>
</svg>